<?xml version="1.0" encoding="UTF-8" standalone="no"?>
<!-- Created with Inkscape (http://www.inkscape.org/) -->

<svg
   xmlns:dc="http://purl.org/dc/elements/1.1/"
   xmlns:cc="http://creativecommons.org/ns#"
   xmlns:rdf="http://www.w3.org/1999/02/22-rdf-syntax-ns#"
   xmlns:svg="http://www.w3.org/2000/svg"
   xmlns="http://www.w3.org/2000/svg"
   xmlns:sodipodi="http://sodipodi.sourceforge.net/DTD/sodipodi-0.dtd"
   xmlns:inkscape="http://www.inkscape.org/namespaces/inkscape"
   width="48px"
   height="48px"
   id="svg7141"
   version="1.1"
   inkscape:version="0.91 r13725"
   sodipodi:docname="contacter_administration.svg">
  <defs
     id="defs7143" />
  <sodipodi:namedview
     id="base"
     pagecolor="#ffffff"
     bordercolor="#666666"
     borderopacity="1.0"
     inkscape:pageopacity="0.0"
     inkscape:pageshadow="2"
     inkscape:zoom="7"
     inkscape:cx="-27.642857"
     inkscape:cy="27.857143"
     inkscape:current-layer="svg7141"
     showgrid="true"
     inkscape:grid-bbox="true"
     inkscape:document-units="px"
     showguides="true"
     inkscape:guide-bbox="true"
     inkscape:window-width="1680"
     inkscape:window-height="984"
     inkscape:window-x="1672"
     inkscape:window-y="-8"
     inkscape:window-maximized="1">
    <sodipodi:guide
       orientation="0,1"
       position="12.714286,38"
       id="guide7149" />
    <sodipodi:guide
       orientation="0,1"
       position="14.285714,10"
       id="guide7151" />
    <sodipodi:guide
       orientation="1,0"
       position="10,32.571429"
       id="guide7153" />
    <sodipodi:guide
       orientation="1,0"
       position="38,23"
       id="guide7155" />
  </sodipodi:namedview>
  <metadata
     id="metadata7146">
    <rdf:RDF>
      <cc:Work
         rdf:about="">
        <dc:format>image/svg+xml</dc:format>
        <dc:type
           rdf:resource="http://purl.org/dc/dcmitype/StillImage" />
        <dc:title />
      </cc:Work>
    </rdf:RDF>
  </metadata>
  <path
     style="display:inline;fill:#292929;fill-opacity:1;fill-rule:nonzero;stroke:none"
     d="M 21.359798,12.515944 C 15.095416,12.515944 10,16.551367 10,21.518615 c 0,3.127965 2.066614,6.029303 5.365164,7.651593 -0.507354,0.606699 -1.156853,1.103601 -1.936703,1.482972 -0.448638,0.216994 -0.694561,0.693133 -0.596704,1.168454 0.09334,0.488607 0.506891,0.843652 1.003706,0.877608 0.278516,0.02066 0.557464,0.03213 0.83297,0.03213 2.16581,0 4.129901,-0.595287 5.665241,-1.697724 1.712488,2.994063 5.649677,4.623728 9.669714,3.904426 l 0.206948,-0.04227 C 31.331934,35.620594 32.676155,36 34.107884,36 c 0.709091,0 1.438067,-0.09787 2.171246,-0.282391 0.477243,-0.119568 0.812528,-0.540946 0.826073,-1.016266 0.01205,-0.48713 -0.299228,-0.919998 -0.767438,-1.060232 -0.585639,-0.184519 -1.103673,-0.465895 -1.541774,-0.843789 2.353096,-1.873236 3.570623,-4.611505 3.149081,-7.262672 -0.400461,-2.488792 -2.204077,-4.610288 -4.823646,-5.649498 -0.201196,-0.08145 -0.409103,-0.08201 -0.608776,-0.04735 -0.996475,-4.164755 -5.613648,-7.321856 -11.152852,-7.321856 z m 0,2.164429 c 5.046434,0 9.150615,3.072582 9.150615,6.838242 0,3.777471 -4.104181,6.85177 -9.150615,6.85177 -0.248407,0 -0.494448,-0.02179 -0.739843,-0.03213 -0.316155,-0.01034 -0.63474,0.09734 -0.860565,0.324664 -0.638332,0.649506 -1.441526,1.146569 -2.364398,1.46099 0.112912,-0.152044 0.221846,-0.314288 0.324221,-0.486997 0.06925,-0.119568 0.133157,-0.238728 0.194877,-0.368629 l 0.05173,-0.108221 c 0.135491,-0.270136 0.150416,-0.595664 0.03449,-0.877609 -0.114418,-0.28047 -0.347533,-0.507966 -0.638095,-0.617201 -3.131438,-1.146968 -5.156489,-3.558946 -5.156489,-6.146639 0,-3.76566 4.10763,-6.838242 9.154063,-6.838242 z m -4.385603,5.571713 c -0.794905,0 -1.438298,0.639307 -1.438298,1.418715 0,0.779408 0.643393,1.406879 1.438298,1.406879 0.796408,0 1.440024,-0.627471 1.440024,-1.406879 0,-0.779408 -0.643616,-1.418715 -1.440024,-1.418715 z m 4.414921,0 c -0.796409,0 -1.436573,0.639307 -1.436573,1.418715 0,0.779408 0.640164,1.406879 1.436573,1.406879 0.796408,0 1.441749,-0.627471 1.441749,-1.406879 0,-0.779408 -0.645341,-1.418715 -1.441749,-1.418715 z m 4.416646,0 c -0.796408,0 -1.440022,0.639307 -1.440022,1.418715 0,0.779408 0.643614,1.406879 1.440022,1.406879 0.794904,0 1.4383,-0.627471 1.4383,-1.406879 0,-0.779408 -0.643396,-1.418715 -1.4383,-1.418715 z m 6.877621,1.817782 c 1.698228,0.802801 2.816913,2.162699 3.078373,3.799587 0.346264,2.153704 -0.899045,4.437533 -3.166327,5.81183 -0.25443,0.162377 -0.405856,0.453622 -0.469085,0.735567 -0.06474,0.292277 0.02453,0.628138 0.193153,0.877608 0.06474,0.09743 0.131264,0.194923 0.215571,0.302682 l 0.0052,0.01015 c -0.519434,-0.162383 -0.995006,-0.400673 -1.409019,-0.725427 -0.272495,-0.205184 -0.622483,-0.279893 -0.953692,-0.204606 -0.183671,0.05314 -0.369509,0.09773 -0.562211,0.130203 -2.855307,0.505545 -5.622506,-0.456641 -7.022486,-2.328451 5.457319,-0.470648 9.753551,-4.024418 10.09051,-8.409144 z"
     id="path6720"
     inkscape:connector-curvature="0" />
</svg>
