<?xml version="1.0" encoding="UTF-8" standalone="no"?>
<!-- Created with Inkscape (http://www.inkscape.org/) -->

<svg
   xmlns:dc="http://purl.org/dc/elements/1.1/"
   xmlns:cc="http://creativecommons.org/ns#"
   xmlns:rdf="http://www.w3.org/1999/02/22-rdf-syntax-ns#"
   xmlns:svg="http://www.w3.org/2000/svg"
   xmlns="http://www.w3.org/2000/svg"
   xmlns:sodipodi="http://sodipodi.sourceforge.net/DTD/sodipodi-0.dtd"
   xmlns:inkscape="http://www.inkscape.org/namespaces/inkscape"
   width="48px"
   height="48px"
   id="svg7141"
   version="1.1"
   inkscape:version="0.91 r13725"
   sodipodi:docname="donnees_publiques.svg">
  <defs
     id="defs7143">
    <linearGradient
       id="linearGradient5609-3"
       y2="37.016998"
       gradientUnits="userSpaceOnUse"
       x2="47.227001"
       gradientTransform="matrix(0.36499376,0,0,0.31533347,9.5974064,12.810068)"
       y1="37.016998"
       x1="28.636999">
      <stop
         id="stop5607-8"
         style="stop-color:#ffffff;stop-opacity:0"
         offset="0" />
    </linearGradient>
  </defs>
  <sodipodi:namedview
     id="base"
     pagecolor="#ffffff"
     bordercolor="#666666"
     borderopacity="1.0"
     inkscape:pageopacity="0.0"
     inkscape:pageshadow="2"
     inkscape:zoom="9.9"
     inkscape:cx="26.600294"
     inkscape:cy="27.714286"
     inkscape:current-layer="svg7141"
     showgrid="true"
     inkscape:grid-bbox="true"
     inkscape:document-units="px"
     showguides="true"
     inkscape:guide-bbox="true"
     inkscape:window-width="1268"
     inkscape:window-height="746"
     inkscape:window-x="3"
     inkscape:window-y="75"
     inkscape:window-maximized="0">
    <sodipodi:guide
       orientation="0,1"
       position="12.714286,38"
       id="guide7149" />
    <sodipodi:guide
       orientation="0,1"
       position="14.285714,10"
       id="guide7151" />
    <sodipodi:guide
       orientation="1,0"
       position="10,32.571429"
       id="guide7153" />
    <sodipodi:guide
       orientation="1,0"
       position="38,23"
       id="guide7155" />
  </sodipodi:namedview>
  <metadata
     id="metadata7146">
    <rdf:RDF>
      <cc:Work
         rdf:about="">
        <dc:format>image/svg+xml</dc:format>
        <dc:type
           rdf:resource="http://purl.org/dc/dcmitype/StillImage" />
        <dc:title></dc:title>
      </cc:Work>
    </rdf:RDF>
  </metadata>
  <g
     id="g9323"
     style="fill:#333333"
     transform="matrix(0.99513968,0,0,1.1403881,0.15855143,-3.4912225)">
    <path
       inkscape:connector-curvature="0"
       id="path6652"
       style="fill:#333333"
       d="m 12.505,24.209 c 1.6922,4.6585 6.2711,7.7592 11.48,7.7592 5.2425,0 9.8048,-3.1007 11.514,-7.7592 -1.7088,-4.6585 -6.2711,-7.7476 -11.514,-7.7476 -5.2093,0 -9.7882,3.0891 -11.48,7.7476 z M 23.985,34.4 c -6.4204,0 -12.028,-3.9402 -13.936,-9.8147 -0.06636,-0.24388 -0.06636,-0.51098 0,-0.75485 1.9245,-5.8613 7.5153,-9.8031 13.936,-9.8031 6.437,0 12.044,3.9418 13.952,9.8031 0.08295,0.24388 0.08295,0.51098 0,0.75485 -1.907,5.875 -7.515,9.815 -13.952,9.815" />
    <flowRoot
       id="flowRoot4143"
       xml:space="preserve"
       style="font-size:5px;line-height:125%;font-family:sans-serif;letter-spacing:0px;word-spacing:0px;fill:#333333"><flowRegion
         id="flowRegion4145"><rect
           id="rect4147"
           style="fill:#333333"
           height="6"
           width="12.714"
           y="22.429001"
           x="17.429001" /></flowRegion><flowPara
         id="flowPara4149" /></flowRoot>    <flowRoot
       id="flowRoot4151"
       xml:space="preserve"
       style="font-size:5px;line-height:125%;font-family:sans-serif;letter-spacing:0px;word-spacing:0px;fill:#333333"
       transform="translate(-2e-7,0.4)"><flowRegion
         id="flowRegion4153"><rect
           id="rect4155"
           style="fill:#333333"
           height="11.714"
           width="15.286"
           y="18.143"
           x="16.143" /></flowRegion><flowPara
         id="flowPara4157">FIDUCIESEEZZZ</flowPara></flowRoot>    <flowRoot
       id="flowRoot4167"
       xml:space="preserve"
       style="font-size:5px;line-height:125%;font-family:sans-serif;letter-spacing:0px;word-spacing:0px;fill:#333333"
       transform="translate(-2e-7,0.4)"><flowRegion
         id="flowRegion4169"><rect
           id="rect4171"
           style="fill:#333333"
           height="6.7143002"
           width="21.857"
           y="20.570999"
           x="13" /></flowRegion><flowPara
         id="flowPara4173">FIDUCIES</flowPara></flowRoot>  </g>
  <ellipse
     style="opacity:1;fill:#333333;fill-opacity:1;stroke:none"
     id="path4162"
     cx="23.801748"
     cy="24.235359"
     rx="5.6884575"
     ry="5.5562682" />
  <path
     inkscape:connector-curvature="0"
     id="path4"
     style="fill:#ffffff;fill-opacity:1;stroke:url(#linearGradient5609-3);stroke-width:0.33925146;stroke-linecap:square;stroke-linejoin:bevel"
     d="m 22.580227,25.332171 c 0.136394,1.082213 0.565064,1.623431 1.295767,1.623431 0.272779,0 0.516364,-0.05179 0.750183,-0.15562 0.214335,-0.109225 0.438415,-0.356655 0.643014,-0.742995 0.136394,-0.252817 0.253303,-0.408438 0.350727,-0.471996 0.107169,-0.06284 0.204591,-0.0918 0.321507,-0.0918 0.214335,0 0.399455,0.05179 0.526104,0.155619 0.11691,0.103582 0.185107,0.247417 0.185107,0.437399 0,0.437399 -0.272781,0.852227 -0.808625,1.226765 -0.545584,0.373813 -1.188598,0.563817 -1.958235,0.563817 -0.720935,0 -1.344469,-0.212807 -1.880313,-0.633764 -0.535845,-0.420212 -0.857352,-1.058635 -0.964521,-1.910862 l -0.711194,0 c -0.0682,0 -0.09743,-0.04099 -0.09743,-0.115363 0,-0.07437 0.02924,-0.172801 0.107169,-0.287433 0.06819,-0.115364 0.126652,-0.167398 0.175366,-0.167398 l 0.487117,0 0,-0.167399 c 0,-0.132791 0.0098,-0.32203 0.01948,-0.570178 l -0.691716,0 c -0.06819,0 -0.09743,-0.04001 -0.09743,-0.114628 0,-0.081 0.02924,-0.172799 0.107169,-0.293793 0.06819,-0.109226 0.126652,-0.167399 0.175366,-0.167399 l 0.565065,0 c 0.243565,-1.571646 1.169092,-2.360761 2.756908,-2.360761 0.711195,0 1.305507,0.149973 1.821845,0.443789 0.506598,0.288158 0.759923,0.650197 0.759923,1.088573 0,0.149234 -0.05845,0.270243 -0.175363,0.373813 -0.126653,0.103581 -0.27278,0.155619 -0.438416,0.155619 -0.185108,0 -0.331248,-0.04001 -0.428676,-0.121009 -0.07794,-0.07462 -0.165623,-0.195625 -0.253305,-0.362792 -0.107168,-0.212807 -0.23382,-0.373813 -0.389688,-0.489182 -0.146138,-0.109225 -0.399455,-0.167399 -0.759923,-0.167399 -0.418935,0 -0.730675,0.115364 -0.954754,0.345606 -0.214335,0.236372 -0.370207,0.59914 -0.428676,1.093986 l 1.812106,0 c 0.06819,0 0.107169,0.03461 0.107169,0.115363 0,0.0864 -0.02923,0.178198 -0.09743,0.293795 -0.07794,0.109225 -0.136394,0.166416 -0.185107,0.166416 l -1.685455,0 0,0.437399 0,0.299931 1.860832,0 c 0.06819,0 0.107169,0.03461 0.107169,0.109227 0,0.0864 -0.02924,0.184579 -0.09743,0.293794 -0.07794,0.114626 -0.136396,0.167397 -0.185107,0.167397 l -1.646496,0 z" />
</svg>
