<?xml version="1.0" encoding="UTF-8" standalone="no"?>
<!-- Created with Inkscape (http://www.inkscape.org/) -->

<svg
   xmlns:dc="http://purl.org/dc/elements/1.1/"
   xmlns:cc="http://creativecommons.org/ns#"
   xmlns:rdf="http://www.w3.org/1999/02/22-rdf-syntax-ns#"
   xmlns:svg="http://www.w3.org/2000/svg"
   xmlns="http://www.w3.org/2000/svg"
   xmlns:sodipodi="http://sodipodi.sourceforge.net/DTD/sodipodi-0.dtd"
   xmlns:inkscape="http://www.inkscape.org/namespaces/inkscape"
   width="48px"
   height="48px"
   id="svg7141"
   version="1.1"
   inkscape:version="0.91 r13725"
   sodipodi:docname="telecharger.svg">
  <defs
     id="defs7143">
    <pattern
       y="0"
       x="0"
       height="6"
       width="6"
       patternUnits="userSpaceOnUse"
       id="EMFhbasepattern" />
  </defs>
  <sodipodi:namedview
     id="base"
     pagecolor="#ffffff"
     bordercolor="#666666"
     borderopacity="1.0"
     inkscape:pageopacity="0.0"
     inkscape:pageshadow="2"
     inkscape:zoom="7"
     inkscape:cx="-1"
     inkscape:cy="27.714286"
     inkscape:current-layer="svg7141"
     showgrid="true"
     inkscape:grid-bbox="true"
     inkscape:document-units="px"
     showguides="true"
     inkscape:guide-bbox="true"
     inkscape:window-width="1165"
     inkscape:window-height="746"
     inkscape:window-x="1594"
     inkscape:window-y="48"
     inkscape:window-maximized="0">
    <sodipodi:guide
       orientation="0,1"
       position="12.714286,38"
       id="guide7149" />
    <sodipodi:guide
       orientation="0,1"
       position="14.285714,10"
       id="guide7151" />
    <sodipodi:guide
       orientation="1,0"
       position="10,32.571429"
       id="guide7153" />
    <sodipodi:guide
       orientation="1,0"
       position="38,23"
       id="guide7155" />
  </sodipodi:namedview>
  <metadata
     id="metadata7146">
    <rdf:RDF>
      <cc:Work
         rdf:about="">
        <dc:format>image/svg+xml</dc:format>
        <dc:type
           rdf:resource="http://purl.org/dc/dcmitype/StillImage" />
        <dc:title></dc:title>
      </cc:Work>
    </rdf:RDF>
  </metadata>
  <path
     inkscape:connector-curvature="0"
     id="path4142"
     d="m 24.281304,31.136968 c -0.239704,0 -0.488286,-0.08434 -0.69248,-0.221948 l -8.327469,-6.063577 c -0.528231,-0.390629 -0.643644,-1.123059 -0.261899,-1.655736 0.386191,-0.532677 1.127493,-0.639212 1.655724,-0.2619 l 7.626124,5.553154 7.634972,-5.553154 c 0.523799,-0.377312 1.269488,-0.270777 1.651239,0.2619 0.38619,0.532677 0.270777,1.265107 -0.261899,1.655736 l -8.327452,6.063577 c -0.204192,0.137608 -0.448276,0.221948 -0.69686,0.221948 z"
     style="fill:#0b6ba8;fill-opacity:1;fill-rule:nonzero;stroke:none" />
  <path
     inkscape:connector-curvature="0"
     id="path4144"
     d="m 24.281304,31.136968 c -0.652528,0 -1.180766,-0.532676 -1.180766,-1.180707 l 0,-18.443815 c 0,-0.652528 0.528238,-1.1852 1.180766,-1.1852 0.656909,0 1.185147,0.532672 1.185147,1.1852 l 0,18.443815 c 0,0.648031 -0.528238,1.180707 -1.185147,1.180707 z"
     style="fill:#0b6ba8;fill-opacity:1;fill-rule:nonzero;stroke:none" />
  <path
     inkscape:connector-curvature="0"
     id="path4146"
     d="m 34.632868,37.387039 -20.689875,0 c -0.656966,0 -1.1852,-0.532676 -1.1852,-1.180765 0,-0.652529 0.528234,-1.185206 1.1852,-1.185206 l 20.689875,0 c 0.652528,0 1.180768,0.532677 1.180768,1.185206 0,0.648089 -0.52824,1.180765 -1.180768,1.180765 z"
     style="fill:#0b6ba8;fill-opacity:1;fill-rule:nonzero;stroke:none" />
  <path
     inkscape:connector-curvature="0"
     id="path4148"
     d="m 34.632868,37.387039 c -0.656967,0 -1.185205,-0.532676 -1.185205,-1.180765 l 0,-5.233548 c 0,-0.652529 0.528238,-1.185146 1.185205,-1.185146 0.652528,0 1.180768,0.532617 1.180768,1.185146 l 0,5.233548 c 0,0.648089 -0.52824,1.180765 -1.180768,1.180765 z"
     style="fill:#0b6ba8;fill-opacity:1;fill-rule:nonzero;stroke:none" />
  <path
     inkscape:connector-curvature="0"
     id="path4150"
     d="m 13.942993,37.387039 c -0.656966,0 -1.1852,-0.532676 -1.1852,-1.180765 l 0,-5.233548 c 0,-0.652529 0.528234,-1.185146 1.1852,-1.185146 0.652523,0 1.180754,0.532617 1.180754,1.185146 l 0,5.233548 c 0,0.648089 -0.528231,1.180765 -1.180754,1.180765 z"
     style="fill:#0b6ba8;fill-opacity:1;fill-rule:nonzero;stroke:none" />
</svg>
