<?xml version="1.0" encoding="UTF-8" standalone="no"?>
<svg id="svg7141" xmlns:rdf="http://www.w3.org/1999/02/22-rdf-syntax-ns#" xmlns="http://www.w3.org/2000/svg" height="48px" viewBox="0 0 48 48" width="48px" version="1.1" xmlns:cc="http://creativecommons.org/ns#" xmlns:xlink="http://www.w3.org/1999/xlink" xmlns:dc="http://purl.org/dc/elements/1.1/">
 <metadata id="metadata23">
  <rdf:RDF>
   <cc:Work rdf:about="">
    <dc:format>image/svg+xml</dc:format>
    <dc:type rdf:resource="http://purl.org/dc/dcmitype/StillImage"/>
    <dc:title/>
   </cc:Work>
  </rdf:RDF>
 </metadata>
 <g id="g9323" transform="matrix(1.6901 0 0 1.8785 -16.663 -19.842)">
  <path id="path6652" fill="#333" d="m12.505 24.209c1.6922 4.6585 6.2711 7.7592 11.48 7.7592 5.2425 0 9.8048-3.1007 11.514-7.7592-1.7088-4.6585-6.2711-7.7476-11.514-7.7476-5.2093 0-9.7882 3.0891-11.48 7.7476zm11.48 10.191c-6.4204 0-12.028-3.9402-13.936-9.8147-.06636-.24388-.06636-.51098 0-.75485 1.9245-5.8613 7.5153-9.8031 13.936-9.8031 6.437 0 12.044 3.9418 13.952 9.8031.08295.24388.08295.51098 0 .75485-1.907 5.875-7.515 9.815-13.952 9.815"/>
  <g font-size="5px" font-family="sans-serif" fill="#333333">
   <flowRoot id="flowRoot4143" style="word-spacing:0px;letter-spacing:0px" xml:space="preserve" line-height="125%"><flowRegion id="flowRegion4145"><rect id="rect4147" height="6" width="12.714" y="22.429" x="17.429" fill="#333"/></flowRegion><flowPara id="flowPara4149"/></flowRoot>
   <flowRoot id="flowRoot4151" style="word-spacing:0px;letter-spacing:0px" line-height="125%" xml:space="preserve" transform="translate(-2e-7 .4)"><flowRegion id="flowRegion4153"><rect id="rect4155" height="11.714" width="15.286" y="18.143" x="16.143" fill="#333"/></flowRegion><flowPara id="flowPara4157">FIDUCIESEEZZZ</flowPara></flowRoot>
   <flowRoot id="flowRoot4167" style="word-spacing:0px;letter-spacing:0px" line-height="125%" xml:space="preserve" transform="translate(-2e-7 .4)"><flowRegion id="flowRegion4169"><rect id="rect4171" height="6.7143" width="21.857" y="20.571" x="13" fill="#333"/></flowRegion><flowPara id="flowPara4173">FIDUCIES</flowPara></flowRoot>
  </g>
 </g>
 <ellipse id="path4162" rx="9.661" ry="9.1525" cy="25.831" cx="23.492" fill="#333"/>
 <path id="path4" d="m21.417 27.637c.23165 1.7827.95968 2.6742 2.2007 2.6742.46328 0 .87697-.08532 1.2741-.25634.36402-.17992.74458-.58750 1.0921-1.2239.23165-.41645.4302-.67280.59566-.77749.18201-.10350.34747-.15122.54603-.15122.36402 0 .67842.08531.89351.25634.19855.17062.31438.40756.31438.72050 0 .72050-.46328 1.4038-1.3733 2.0208-.92660.61576-2.0187.92875-3.3258.92875-1.2244 0-2.2834-.35055-3.1934-1.044-.91005-.69219-1.4561-1.7438-1.6381-3.1477h-1.2079c-.11582 0-.16546-.06753-.16546-.19003 0-.12251.04964-.28464.18201-.47347.11582-.19003.2151-.27575.29783-.27575h.82730v-.27575c0-.21874.01654-.53046.03309-.93922h-1.1748c-.11582 0-.16546-.06591-.16546-.18882 0-.13342.04964-.28464.18201-.48395.11582-.17992.2151-.27575.29783-.27575h.95968c.41366-2.5889 1.9855-3.8888 4.6822-3.8888 1.2079 0 2.2172.24704 3.0941.73103.86038.47467 1.2906 1.071 1.2906 1.7931 0 .24583-.09928.44516-.29783.61576-.2151.17062-.46328.25634-.74458.25634-.31438 0-.56258-.06591-.72804-.19933-.13237-.12291-.28129-.32224-.43020-.59761-.18201-.35055-.39711-.61576-.66183-.80580-.24819-.17992-.67842-.27575-1.2906-.27575-.71150 0-1.2409.19003-1.6215.56930-.36402.38936-.62874.98693-.72804 1.8021h3.0776c.11582 0 .18201.05701.18201.19003 0 .14232-.04964.29354-.16546.48395-.13237.17992-.23165.27413-.31438.27413h-2.8625v.72050.49406h3.1604c.11582 0 .18201.05701.18201.17992 0 .14232-.04964.30405-.16546.48395-.13237.18882-.23165.27575-.31438.27575h-2.7963z" fill="#fff"/>
</svg>