<?xml version="1.0" encoding="UTF-8" standalone="no"?>
<svg
   xmlns:dc="http://purl.org/dc/elements/1.1/"
   xmlns:cc="http://creativecommons.org/ns#"
   xmlns:rdf="http://www.w3.org/1999/02/22-rdf-syntax-ns#"
   xmlns:svg="http://www.w3.org/2000/svg"
   xmlns="http://www.w3.org/2000/svg"
   xmlns:sodipodi="http://sodipodi.sourceforge.net/DTD/sodipodi-0.dtd"
   xmlns:inkscape="http://www.inkscape.org/namespaces/inkscape"
   id="svg2"
   viewBox="0 0 48 48"
   height="48"
   width="48"
   version="1.1"
   inkscape:version="0.91 r13725"
   sodipodi:docname="contact.svg">
  <sodipodi:namedview
     pagecolor="#ffffff"
     bordercolor="#666666"
     borderopacity="1"
     objecttolerance="10"
     gridtolerance="10"
     guidetolerance="10"
     inkscape:pageopacity="0"
     inkscape:pageshadow="2"
     inkscape:window-width="706"
     inkscape:window-height="480"
     id="namedview6"
     showgrid="false"
     inkscape:zoom="4.9166667"
     inkscape:cx="24"
     inkscape:cy="23.79661"
     inkscape:window-x="0"
     inkscape:window-y="0"
     inkscape:window-maximized="0"
     inkscape:current-layer="svg2" />
  <metadata
     id="metadata16">
    <rdf:RDF>
      <cc:Work
         rdf:about="">
        <dc:format>image/svg+xml</dc:format>
        <dc:type
           rdf:resource="http://purl.org/dc/dcmitype/StillImage" />
        <dc:title />
      </cc:Work>
    </rdf:RDF>
  </metadata>
  <defs
     id="defs14" />
  <path
     id="path6720"
     d="m 20.08106,3.5036228 c -10.009309,0 -18.15083,7.0003282 -18.15083,15.6171142 0,5.426142 3.3020622,10.459152 8.572527,13.273371 -0.8106562,1.052453 -1.8484342,1.914438 -3.094488,2.57254 -0.71684,0.376426 -1.1097786,1.202394 -0.9534215,2.026941 0.1491398,0.847595 0.8099163,1.463501 1.6037353,1.522405 0.4450157,0.03585 0.8907211,0.05574 1.3309283,0.05574 3.4605599,0 6.5988089,-1.032655 9.0519959,-2.945075 2.736234,5.193861 9.027125,8.020874 15.450392,6.773086 l 0.330664,-0.07333 c 1.792104,1.257308 3.939918,1.915471 6.227553,1.915471 1.132995,0 2.297762,-0.169776 3.469244,-0.48987 0.762545,-0.207416 1.298268,-0.938389 1.319909,-1.762936 0.01925,-0.845034 -0.47811,-1.595937 -1.226222,-1.839206 -0.935741,-0.320089 -1.763461,-0.808196 -2.463466,-1.463737 3.759807,-3.24954 5.705188,-7.99967 5.031643,-12.598704 -0.639862,-4.317352 -3.521702,-7.997552 -7.707283,-9.80029 C 38.552466,16.145849 38.22027,16.144878 37.90123,16.205002 36.30905,8.9803121 28.931672,3.5036264 20.08106,3.5036264 Z m 0,3.7546789 c 8.063258,0 14.620971,5.3300703 14.620971,11.8624353 0,6.552853 -6.557713,11.885901 -14.620971,11.885901 -0.396907,0 -0.790035,-0.03781 -1.182131,-0.05574 -0.505156,-0.01794 -1.014195,0.168857 -1.375022,0.5632 -1.019934,1.126712 -2.303288,1.988978 -3.777865,2.53441 0.180412,-0.263754 0.354469,-0.545202 0.518045,-0.844803 0.110652,-0.207418 0.212759,-0.414128 0.311377,-0.63947 l 0.08267,-0.187732 c 0.216488,-0.46861 0.240335,-1.03331 0.0551,-1.522407 -0.182819,-0.486537 -0.555292,-0.881179 -1.019556,-1.070672 -5.0034526,-1.989668 -8.2391041,-6.173772 -8.2391041,-10.662698 0,-6.532365 6.5632231,-11.8624341 14.6264781,-11.8624341 z m -7.007372,9.6653613 c -1.270111,0 -2.298132,1.109017 -2.298132,2.461074 0,1.352054 1.028021,2.440539 2.298132,2.440539 1.272511,0 2.300887,-1.088485 2.300887,-2.440539 0,-1.352057 -1.028376,-2.461074 -2.300887,-2.461074 z m 7.054217,0 c -1.272513,0 -2.295375,1.109017 -2.295375,2.461074 0,1.352054 1.022862,2.440539 2.295375,2.440539 1.272511,0 2.303644,-1.088485 2.303644,-2.440539 0,-1.352057 -1.031133,-2.461074 -2.303644,-2.461074 z m 7.056973,0 c -1.272509,0 -2.300886,1.109017 -2.300886,2.461074 0,1.352054 1.028377,2.440539 2.300886,2.440539 1.270109,0 2.298136,-1.088485 2.298136,-2.440539 0,-1.352057 -1.028027,-2.461074 -2.298136,-2.461074 z m 10.989151,3.153343 c 2.713451,1.392634 4.500901,3.751677 4.918665,6.591219 0.553264,3.736073 -1.436506,7.697879 -5.059199,10.081898 -0.406532,0.281678 -0.648482,0.786907 -0.74951,1.276003 -0.103448,0.507018 0.03919,1.089644 0.308623,1.522404 0.103448,0.169013 0.209736,0.338137 0.344442,0.525068 l 0.0083,0.01761 C 37.115391,39.809519 36.355515,39.396154 35.694,38.832796 35.258604,38.47686 34.69939,38.34726 34.170178,38.477863 c -0.293471,0.09219 -0.590405,0.169533 -0.898308,0.225865 -4.562245,0.876979 -8.983711,-0.792145 -11.220617,-4.039212 8.719775,-0.816442 15.58435,-6.981238 16.122745,-14.587509 z"
     style="display:inline;fill:#333333;fill-opacity:1;fill-rule:nonzero;stroke:none"
     inkscape:connector-curvature="0" />
</svg>
