<?xml version="1.0" encoding="UTF-8" standalone="no"?>
<!-- Generated by IcoMoon.io -->

<svg
   xmlns:dc="http://purl.org/dc/elements/1.1/"
   xmlns:cc="http://creativecommons.org/ns#"
   xmlns:rdf="http://www.w3.org/1999/02/22-rdf-syntax-ns#"
   xmlns:svg="http://www.w3.org/2000/svg"
   xmlns="http://www.w3.org/2000/svg"
   xmlns:sodipodi="http://sodipodi.sourceforge.net/DTD/sodipodi-0.dtd"
   xmlns:inkscape="http://www.inkscape.org/namespaces/inkscape"
   version="1.1"
   width="48"
   height="48"
   viewBox="0 0 48 48"
   id="svg2"
   inkscape:version="0.91 r13725"
   sodipodi:docname="declarer.svg">
  <metadata
     id="metadata16">
    <rdf:RDF>
      <cc:Work
         rdf:about="">
        <dc:format>image/svg+xml</dc:format>
        <dc:type
           rdf:resource="http://purl.org/dc/dcmitype/StillImage" />
      </cc:Work>
    </rdf:RDF>
  </metadata>
  <defs
     id="defs14" />
  <sodipodi:namedview
     pagecolor="#ffffff"
     bordercolor="#666666"
     borderopacity="1"
     objecttolerance="10"
     gridtolerance="10"
     guidetolerance="10"
     inkscape:pageopacity="0"
     inkscape:pageshadow="2"
     inkscape:window-width="706"
     inkscape:window-height="480"
     id="namedview12"
     showgrid="false"
     inkscape:zoom="4.1590286"
     inkscape:cx="-13.268318"
     inkscape:cy="23.759559"
     inkscape:window-x="0"
     inkscape:window-y="0"
     inkscape:window-maximized="0"
     inkscape:current-layer="svg2" />
  <path
     d="M 35.082266,44.194593 H 9.8441122 c -0.8570488,0 -1.529585,-0.76732 -1.529585,-1.70449 V 6.2711817 c 0,-0.9371715 0.6711991,-1.7044899 1.529585,-1.7044899 H 35.082266 c 0.841005,0 1.529585,0.7673184 1.529585,1.7044899 V 17.144753 c 0,0.938663 -0.68858,1.705981 -1.529585,1.705981 -0.857048,0 -1.529584,-0.767318 -1.529584,-1.705981 V 7.9756717 H 11.373697 V 40.785611 H 33.552682 V 27.012618 c 0,-0.955049 0.671199,-1.704489 1.529584,-1.704489 0.841005,0 1.529585,0.74795 1.529585,1.704489 v 15.475996 c 0,0.937171 -0.68858,1.704489 -1.529585,1.704489 z"
     id="path4"
     inkscape:connector-curvature="0"
     style="fill:#333333" />
  <path
     d="m 17.294154,6.2711817 -0.18585,0.2205109 0.18585,0.2041216 H 27.617516 L 27.8154,6.4916926 27.617516,6.2711817 H 17.294154 z M 27.617516,10.104793 H 17.294154 c -1.79031,0 -3.243683,-1.6180724 -3.243683,-3.6131004 0,-2.0114173 1.45471,-3.6294909 3.243683,-3.6294909 h 10.323362 c 1.79031,0 3.258392,1.6180736 3.258392,3.6294909 0,1.995028 -1.469419,3.6131004 -3.258392,3.6131004 z"
     id="path6"
     inkscape:connector-curvature="0"
     style="fill:#333333" />
  <path
     d="m 21.836113,31.786383 2.659393,0.390364 15.600699,-11.861403 -2.002901,-3.289784 -15.6007,11.864382 -0.657828,2.896441 z m 3.043125,3.869372 -0.197882,-0.01638 -4.943074,-0.716662 C 19.295719,34.872053 18.91466,34.597906 18.668642,34.206054 18.423962,33.79632 18.347749,33.30166 18.456051,32.82488 l 1.206018,-5.38464 c 0.0936,-0.411222 0.306185,-0.768807 0.613707,-1.007198 l 17.345548,-13.17553 c 0.350308,-0.256271 0.74875,-0.357586 1.147189,-0.274148 0.413149,0.08641 0.748749,0.341195 0.993429,0.718148 l 3.718336,6.099809 c 0.227297,0.373976 0.320891,0.834366 0.24468,1.278369 -0.07756,0.441022 -0.306185,0.834365 -0.643122,1.090635 l -17.345547,13.17553 c -0.244681,0.204121 -0.550867,0.306926 -0.855714,0.306926 z"
     id="path8"
     inkscape:connector-curvature="0"
     style="fill:#333333" />
  <path
     d="m 23.915226,31.054824 c -0.24468,0 -0.490698,-0.120686 -0.628414,-0.357586 -0.24468,-0.393343 -0.152425,-0.920783 0.200557,-1.191952 L 37.023663,19.211299 c 0.350308,-0.257759 0.826298,-0.156444 1.069641,0.22051 0.229971,0.390365 0.137715,0.920784 -0.197884,1.191953 L 24.343081,30.917748 c -0.137716,0.102813 -0.275431,0.137076 -0.427855,0.137076 z"
     id="path10"
     inkscape:connector-curvature="0"
     style="fill:#333333" />
</svg>
