<?xml version="1.0" encoding="UTF-8" standalone="no"?>
<!-- Generated by IcoMoon.io -->

<svg
   xmlns:dc="http://purl.org/dc/elements/1.1/"
   xmlns:cc="http://creativecommons.org/ns#"
   xmlns:rdf="http://www.w3.org/1999/02/22-rdf-syntax-ns#"
   xmlns:svg="http://www.w3.org/2000/svg"
   xmlns="http://www.w3.org/2000/svg"
   xmlns:sodipodi="http://sodipodi.sourceforge.net/DTD/sodipodi-0.dtd"
   xmlns:inkscape="http://www.inkscape.org/namespaces/inkscape"
   version="1.1"
   width="48"
   height="48"
   viewBox="0 0 48 48"
   id="svg2"
   inkscape:version="0.91 r13725"
   sodipodi:docname="evaluer_bien.svg">
  <metadata
     id="metadata14">
    <rdf:RDF>
      <cc:Work
         rdf:about="">
        <dc:format>image/svg+xml</dc:format>
        <dc:type
           rdf:resource="http://purl.org/dc/dcmitype/StillImage" />
      </cc:Work>
    </rdf:RDF>
  </metadata>
  <defs
     id="defs12" />
  <sodipodi:namedview
     pagecolor="#ffffff"
     bordercolor="#666666"
     borderopacity="1"
     objecttolerance="10"
     gridtolerance="10"
     guidetolerance="10"
     inkscape:pageopacity="0"
     inkscape:pageshadow="2"
     inkscape:window-width="706"
     inkscape:window-height="480"
     id="namedview10"
     showgrid="false"
     inkscape:zoom="5.3776042"
     inkscape:cx="24"
     inkscape:cy="23.814044"
     inkscape:window-x="0"
     inkscape:window-y="0"
     inkscape:window-maximized="0"
     inkscape:current-layer="svg2" />
  <path
     d="m 31.29801,27.224949 c -0.858425,0 -1.556305,0.723776 -1.556305,1.612356 v 12.416326 c 0,0.88858 0.69788,1.612355 1.556305,1.612355 h 7.832312 c 0.858425,0 1.554667,-0.723775 1.554667,-1.612355 V 28.837305 c 0,-0.88858 -0.696242,-1.612356 -1.554667,-1.612356 H 31.29801 z m 0,1.3677 h 7.832312 c 0.129419,0 0.235904,0.11044 0.235904,0.244656 v 12.416326 c 0,0.134221 -0.106485,0.244656 -0.235904,0.244656 H 31.29801 c -0.131057,0 -0.235904,-0.11044 -0.235904,-0.244656 V 28.837305 c 0,-0.134221 0.104849,-0.244656 0.235904,-0.244656 z m 1.153305,1.967447 v 1.335417 h 5.614166 v -1.335417 h -5.614166 z m 0,2.946073 v 1.335419 h 1.502243 v -1.335419 h -1.502243 z m 2.057598,0 v 1.335419 h 1.502245 v -1.335419 h -1.502245 z m 2.054324,0 v 1.335419 h 1.502244 v -1.335419 h -1.502244 z m -4.111922,1.918177 v 1.335417 h 1.502243 v -1.335417 h -1.502243 z m 2.057598,0 v 1.335417 h 1.502245 v -1.335417 h -1.502245 z m 2.054324,0 v 1.335417 h 1.502244 v -1.335417 h -1.502244 z m -4.111922,1.919875 v 1.335417 h 1.502243 v -1.335417 h -1.502243 z m 2.057598,0 v 1.335417 h 1.502245 v -1.335417 h -1.502245 z m 2.054324,0 v 1.335417 h 1.502244 v -1.335417 h -1.502244 z"
     id="path4"
     inkscape:connector-curvature="0"
     style="fill:#333333" />
  <path
     d="m 23.799894,2.1782228 c -0.35877,0 -0.720816,0.1240313 -1.027162,0.3720815 L 1.6233602,19.666077 c -0.79125902,0.640526 -0.96982454,1.884197 -0.4062787,2.777874 0.5668238,0.893676 1.667705,1.100954 2.454049,0.460429 l 2.5244913,-2.043902 v 18.240514 c 0,1.095858 0.786344,1.991233 1.7594442,1.991233 h 11.25946 c 0.9731,0 1.759445,-0.893676 1.759445,-1.991233 V 26.557241 h 5.640378 v 2.319141 c -0.07864,-0.336402 1.495692,-2.179823 3.473019,-3.386116 l 0.05079,-0.92086 c 0,-1.099257 -0.786344,-1.991235 -1.759444,-1.991235 h -9.164183 c -0.9731,0 -1.759444,0.891978 -1.759444,1.991235 v 12.54375 H 9.7145101 V 18.4343 c 0,-0.135921 -0.013106,-0.266744 -0.034401,-0.39417 L 23.799897,6.6143244 37.91313,18.036733 c -0.02294,0.129124 -0.0344,0.261646 -0.0344,0.397567 v 5.776615 c 0.399724,-0.06965 2.105108,0.567468 3.563121,1.563085 l -0.04095,-4.913522 2.524492,2.043902 c 0.309623,0.253152 0.666753,0.368684 1.020609,0.368684 0.552079,0 1.09269,-0.287131 1.436715,-0.829113 0.566822,-0.893677 0.383343,-2.137348 -0.409554,-2.777874 L 24.823779,2.5503043 C 24.517432,2.3039493 24.158664,2.1782228 23.799894,2.1782228 z"
     id="path6"
     inkscape:connector-curvature="0"
     style="fill:#333333" />
  <path
     d="m 35.203518,23.339326 c -6.27273,0 -11.37086,5.287302 -11.37086,11.792792 0,6.505488 5.09813,11.79279 11.37086,11.79279 6.27273,0 11.370859,-5.287302 11.370859,-11.79279 0,-6.50549 -5.098129,-11.792792 -11.370859,-11.792792 z m 0,1.274253 c 5.607613,0 10.13892,4.702845 10.13892,10.518539 0,5.815692 -4.531307,10.515139 -10.13892,10.515139 -5.607614,0 -10.142198,-4.699447 -10.142198,-10.515139 0,-5.815694 4.534584,-10.518539 10.142198,-10.518539 z"
     id="path8"
     inkscape:connector-curvature="0"
     style="fill:#333333" />
</svg>
