<?xml version="1.0" encoding="UTF-8" standalone="no"?>
<svg
   xmlns:dc="http://purl.org/dc/elements/1.1/"
   xmlns:cc="http://creativecommons.org/ns#"
   xmlns:rdf="http://www.w3.org/1999/02/22-rdf-syntax-ns#"
   xmlns:svg="http://www.w3.org/2000/svg"
   xmlns="http://www.w3.org/2000/svg"
   xmlns:sodipodi="http://sodipodi.sourceforge.net/DTD/sodipodi-0.dtd"
   xmlns:inkscape="http://www.inkscape.org/namespaces/inkscape"
   id="svg7141"
   height="48px"
   width="48px"
   version="1.1"
   inkscape:version="0.91 r13725"
   sodipodi:docname="fiducies.svg">
  <metadata
     id="metadata23">
    <rdf:RDF>
      <cc:Work
         rdf:about="">
        <dc:format>image/svg+xml</dc:format>
        <dc:type
           rdf:resource="http://purl.org/dc/dcmitype/StillImage" />
        <dc:title></dc:title>
      </cc:Work>
    </rdf:RDF>
  </metadata>
  <sodipodi:namedview
     pagecolor="#ffffff"
     bordercolor="#666666"
     borderopacity="1"
     objecttolerance="10"
     gridtolerance="10"
     guidetolerance="10"
     inkscape:pageopacity="0"
     inkscape:pageshadow="2"
     inkscape:window-width="1920"
     inkscape:window-height="1018"
     id="namedview21"
     showgrid="false"
     inkscape:zoom="4.9166667"
     inkscape:cx="24"
     inkscape:cy="23.79661"
     inkscape:window-x="-8"
     inkscape:window-y="-8"
     inkscape:window-maximized="1"
     inkscape:current-layer="svg7141" />
  <defs
     id="defs20">
    <linearGradient
       id="linearGradient5609"
       y2="37.017"
       gradientUnits="userSpaceOnUse"
       x2="47.227"
       gradientTransform="matrix(1.379 0 0 1.1302 -29.631 -15.496)"
       y1="37.017"
       x1="28.637">
      <stop
         id="stop5607"
         style="stop-color:#0000ff;stop-opacity:0"
         offset="0" />
    </linearGradient>
    <linearGradient
       id="linearGradient5609-3"
       y2="37.016998"
       gradientUnits="userSpaceOnUse"
       x2="47.227001"
       gradientTransform="matrix(0.61988876,0,0,0.51943191,-0.63247934,7.0102423)"
       y1="37.016998"
       x1="28.636999">
      <stop
         id="stop5607-8"
         style="stop-color:#0000ff;stop-opacity:0"
         offset="0" />
    </linearGradient>
  </defs>
  <g
     id="g9323"
     style="fill:#333333"
     transform="matrix(1.6901 0 0 1.8785 -16.663 -19.842)">
    <path
       id="path6652"
       style="fill:#333333"
       d="m12.505 24.209c1.6922 4.6585 6.2711 7.7592 11.48 7.7592 5.2425 0 9.8048-3.1007 11.514-7.7592-1.7088-4.6585-6.2711-7.7476-11.514-7.7476-5.2093 0-9.7882 3.0891-11.48 7.7476zm11.48 10.191c-6.4204 0-12.028-3.9402-13.936-9.8147-.06636-.24388-.06636-.51098 0-.75485 1.9245-5.8613 7.5153-9.8031 13.936-9.8031 6.437 0 12.044 3.9418 13.952 9.8031.08295.24388.08295.51098 0 .75485-1.907 5.875-7.515 9.815-13.952 9.815" />
    <flowRoot
       id="flowRoot4143"
       xml:space="preserve"
       style="font-size:5px;letter-spacing:0px;word-spacing:0px;font-family:sans-serif;line-height:125%;fill:#333333"><flowRegion
         id="flowRegion4145"><rect
           id="rect4147"
           style="fill:#333333"
           height="6"
           width="12.714"
           y="22.429"
           x="17.429" /></flowRegion><flowPara
         id="flowPara4149" /></flowRoot>    <flowRoot
       id="flowRoot4151"
       xml:space="preserve"
       style="font-size:5px;letter-spacing:0px;word-spacing:0px;font-family:sans-serif;line-height:125%;fill:#333333"
       transform="translate(-2e-7 .4)"><flowRegion
         id="flowRegion4153"><rect
           id="rect4155"
           style="fill:#333333"
           height="11.714"
           width="15.286"
           y="18.143"
           x="16.143" /></flowRegion><flowPara
         id="flowPara4157">FIDUCIESEEZZZ</flowPara></flowRoot>    <flowRoot
       id="flowRoot4167"
       xml:space="preserve"
       style="font-size:5px;letter-spacing:0px;word-spacing:0px;font-family:sans-serif;line-height:125%;fill:#333333"
       transform="translate(-2e-7 .4)"><flowRegion
         id="flowRegion4169"><rect
           id="rect4171"
           style="fill:#333333"
           height="6.7143"
           width="21.857"
           y="20.571"
           x="13" /></flowRegion><flowPara
         id="flowPara4173">FIDUCIES</flowPara></flowRoot>  </g>
  <ellipse
     style="opacity:1;fill:#333333;fill-opacity:1;stroke:none"
     id="path4162"
     cx="23.491526"
     cy="25.830507"
     rx="9.6610174"
     ry="9.1525421" />
  <path
     inkscape:connector-curvature="0"
     id="path4"
     style="fill:#ffffff;fill-opacity:1;stroke:url(#linearGradient5609-3);stroke-width:0.56743371;stroke-linecap:square;stroke-linejoin:bevel"
     d="m 21.41695,27.637231 c 0.231647,1.782669 0.959681,2.674188 2.200673,2.674188 0.463275,0 0.876969,-0.08532 1.274076,-0.256343 0.364017,-0.179921 0.744585,-0.587498 1.092065,-1.223896 0.231647,-0.416451 0.4302,-0.672798 0.59566,-0.777493 0.18201,-0.103505 0.347469,-0.151216 0.546032,-0.151216 0.364017,0 0.678416,0.08531 0.893511,0.256343 0.198554,0.170624 0.314378,0.407558 0.314378,0.720503 0,0.720505 -0.463277,1.403828 -1.373331,2.020785 -0.926596,0.615763 -2.018661,0.928746 -3.325777,0.928746 -1.224404,0 -2.283385,-0.350546 -3.193439,-1.043967 -0.910054,-0.692192 -1.456087,-1.743832 -1.638097,-3.147659 l -1.207862,0 c -0.115824,0 -0.165464,-0.06753 -0.165464,-0.190032 0,-0.122509 0.04964,-0.284645 0.182011,-0.473473 0.115823,-0.190032 0.2151,-0.275747 0.297834,-0.275747 l 0.827298,0 0,-0.275746 c 0,-0.218738 0.01654,-0.530463 0.03309,-0.939224 l -1.174777,0 c -0.115824,0 -0.165464,-0.06591 -0.165464,-0.188819 0,-0.133425 0.04964,-0.284644 0.182011,-0.483951 0.115823,-0.179922 0.2151,-0.275747 0.297834,-0.275747 l 0.959681,0 c 0.413658,-2.588887 1.985533,-3.888754 4.682206,-3.888754 1.207862,0 2.217215,0.247041 3.094139,0.731029 0.860383,0.474668 1.290619,1.071035 1.290619,1.793148 0,0.245826 -0.09928,0.445156 -0.29783,0.615762 -0.2151,0.170624 -0.463276,0.256342 -0.744585,0.256342 -0.314378,0 -0.562576,-0.06591 -0.728044,-0.19933 -0.132371,-0.122913 -0.281287,-0.322243 -0.430201,-0.597608 -0.18201,-0.350546 -0.39711,-0.615762 -0.661828,-0.805804 -0.248194,-0.179921 -0.678417,-0.275747 -1.290619,-0.275747 -0.711501,0 -1.240945,0.190033 -1.62151,0.569298 -0.364017,0.389363 -0.628744,0.98693 -0.728043,1.802064 l 3.077597,0 c 0.115823,0 0.182011,0.05701 0.182011,0.190032 0,0.142322 -0.04964,0.293537 -0.165464,0.483952 -0.132371,0.179921 -0.231647,0.274128 -0.314377,0.274128 l -2.862501,0 0,0.720504 0,0.494062 3.160353,0 c 0.115824,0 0.182011,0.05701 0.182011,0.179922 0,0.142321 -0.04964,0.304048 -0.165463,0.483951 -0.132371,0.188819 -0.231647,0.275746 -0.314378,0.275746 l -2.796332,0 z" />
</svg>
