<?xml version="1.0" encoding="UTF-8" standalone="no"?>
<!-- Generated by IcoMoon.io -->

<svg
   xmlns:dc="http://purl.org/dc/elements/1.1/"
   xmlns:cc="http://creativecommons.org/ns#"
   xmlns:rdf="http://www.w3.org/1999/02/22-rdf-syntax-ns#"
   xmlns:svg="http://www.w3.org/2000/svg"
   xmlns="http://www.w3.org/2000/svg"
   xmlns:sodipodi="http://sodipodi.sourceforge.net/DTD/sodipodi-0.dtd"
   xmlns:inkscape="http://www.inkscape.org/namespaces/inkscape"
   version="1.1"
   width="48"
   height="48"
   viewBox="0 0 48 48"
   id="svg2"
   inkscape:version="0.91 r13725"
   sodipodi:docname="payer.svg">
  <metadata
     id="metadata10">
    <rdf:RDF>
      <cc:Work
         rdf:about="">
        <dc:format>image/svg+xml</dc:format>
        <dc:type
           rdf:resource="http://purl.org/dc/dcmitype/StillImage" />
      </cc:Work>
    </rdf:RDF>
  </metadata>
  <defs
     id="defs8" />
  <sodipodi:namedview
     pagecolor="#ffffff"
     bordercolor="#666666"
     borderopacity="1"
     objecttolerance="10"
     gridtolerance="10"
     guidetolerance="10"
     inkscape:pageopacity="0"
     inkscape:pageshadow="2"
     inkscape:window-width="706"
     inkscape:window-height="480"
     id="namedview6"
     showgrid="false"
     inkscape:zoom="4.1590286"
     inkscape:cx="24"
     inkscape:cy="23.759559"
     inkscape:window-x="0"
     inkscape:window-y="0"
     inkscape:window-maximized="0"
     inkscape:current-layer="svg2" />
  <path
     d="m 19.734061,29.527612 c 0.628621,6.155451 2.604284,9.233875 5.971891,9.233875 1.257241,0 2.379777,-0.29458 3.45741,-0.885134 0.987833,-0.62127 2.020566,-2.02855 2.963495,-4.226026 0.628621,-1.437995 1.167438,-2.323129 1.616452,-2.684722 0.493917,-0.357404 0.942931,-0.522145 1.481749,-0.522145 0.98783,0 1.840958,0.294579 2.424677,0.885134 0.538817,0.589158 0.853127,1.40728 0.853127,2.48787 0,2.487869 -1.25724,4.847296 -3.726819,6.97776 -2.51448,2.126275 -5.477975,3.206866 -9.025189,3.206866 -3.322707,0 -6.196399,-1.210429 -8.665979,-3.604758 -2.469578,-2.390141 -3.951327,-6.021424 -4.445241,-10.86872 H 9.3618276 c -0.3143098,0 -0.4490136,-0.233151 -0.4490136,-0.656173 0,-0.42302 0.1347038,-0.982861 0.4939166,-1.634845 0.3143098,-0.656171 0.5837176,-0.952147 0.8082244,-0.952147 h 2.245073 v -0.952148 c 0,-0.755295 0.0449,-1.831696 0.0898,-3.243164 H 9.3618256 c -0.3143098,0 -0.4490136,-0.227567 -0.4490136,-0.651984 0,-0.460716 0.1347038,-0.982862 0.4939166,-1.671144 0.3143098,-0.62127 0.5837176,-0.952148 0.8082244,-0.952148 h 2.604283 C 13.941775,9.8745652 18.207413,5.3860693 25.525064,5.3860693 c 3.277805,0 6.016793,0.8530235 8.39657,2.5241678 2.334874,1.6390343 3.502311,3.6982959 3.502311,6.1917489 0,0.848835 -0.269407,1.537118 -0.808225,2.126277 -0.583719,0.589158 -1.257241,0.885134 -2.020565,0.885134 -0.853127,0 -1.526649,-0.227566 -1.975663,-0.688282 -0.359211,-0.424418 -0.763325,-1.112701 -1.167437,-2.063453 -0.493917,-1.210427 -1.077635,-2.126275 -1.796059,-2.782447 -0.673521,-0.621269 -1.840958,-0.952147 -3.502311,-0.952147 -1.930762,0 -3.367608,0.656172 -4.400342,1.965724 -0.98783,1.344454 -1.706254,3.407905 -1.975663,6.222463 h 8.351669 c 0.314309,0 0.493915,0.196851 0.493915,0.656173 0,0.49143 -0.134705,1.013576 -0.449014,1.671144 -0.359212,0.62127 -0.628621,0.946563 -0.853128,0.946563 h -7.767949 v 2.487869 c 0,0.790199 0,1.344454 0,1.706047 h 8.576176 c 0.314309,0 0.493915,0.196852 0.493915,0.621268 0,0.491432 -0.134705,1.049876 -0.449014,1.671145 -0.359212,0.651984 -0.628621,0.952148 -0.853128,0.952148 h -7.588343 z"
     id="path4"
     inkscape:connector-curvature="0"
     style="fill:#333333" />
</svg>
