<?xml version="1.0" encoding="UTF-8" standalone="no"?>
<!-- Created with Inkscape (http://www.inkscape.org/) -->

<svg
   xmlns:dc="http://purl.org/dc/elements/1.1/"
   xmlns:cc="http://creativecommons.org/ns#"
   xmlns:rdf="http://www.w3.org/1999/02/22-rdf-syntax-ns#"
   xmlns:svg="http://www.w3.org/2000/svg"
   xmlns="http://www.w3.org/2000/svg"
   xmlns:sodipodi="http://sodipodi.sourceforge.net/DTD/sodipodi-0.dtd"
   xmlns:inkscape="http://www.inkscape.org/namespaces/inkscape"
   width="48px"
   height="48px"
   id="svg7141"
   version="1.1"
   inkscape:version="0.91 r13725"
   sodipodi:docname="declarer.svg">
  <defs
     id="defs7143" />
  <sodipodi:namedview
     id="base"
     pagecolor="#ffffff"
     bordercolor="#666666"
     borderopacity="1.0"
     inkscape:pageopacity="0.0"
     inkscape:pageshadow="2"
     inkscape:zoom="7"
     inkscape:cx="9.1428571"
     inkscape:cy="27.857143"
     inkscape:current-layer="svg7141"
     showgrid="true"
     inkscape:grid-bbox="true"
     inkscape:document-units="px"
     showguides="true"
     inkscape:guide-bbox="true"
     inkscape:window-width="1165"
     inkscape:window-height="746"
     inkscape:window-x="1956"
     inkscape:window-y="84"
     inkscape:window-maximized="0">
    <sodipodi:guide
       orientation="0,1"
       position="12.714286,38"
       id="guide7149" />
    <sodipodi:guide
       orientation="0,1"
       position="14.285714,10"
       id="guide7151" />
    <sodipodi:guide
       orientation="1,0"
       position="10,32.571429"
       id="guide7153" />
    <sodipodi:guide
       orientation="1,0"
       position="38,23"
       id="guide7155" />
  </sodipodi:namedview>
  <metadata
     id="metadata7146">
    <rdf:RDF>
      <cc:Work
         rdf:about="">
        <dc:format>image/svg+xml</dc:format>
        <dc:type
           rdf:resource="http://purl.org/dc/dcmitype/StillImage" />
        <dc:title />
      </cc:Work>
    </rdf:RDF>
  </metadata>
  <path
     inkscape:connector-curvature="0"
     style="display:inline;fill:#292929;fill-opacity:1;fill-rule:nonzero;stroke:none"
     d="m 17.714843,10.259766 c -0.865933,0 -1.621351,0.458371 -2.050781,1.144531 l -3.521484,0 C 11.501266,11.404297 11,11.918046 11,12.546875 l 0,24.308594 C 11,37.484299 11.501266,38 12.142578,38 l 18.876953,0 c 0.62883,0 1.142578,-0.515701 1.142578,-1.144531 l 0,-10.335938 4.839844,-3.298828 c 0.251219,-0.171641 0.422728,-0.435952 0.480468,-0.732422 0.05773,-0.298031 -0.01351,-0.606203 -0.183593,-0.857422 l -2.78125,-4.095703 c -0.182563,-0.25278 -0.433234,-0.424682 -0.742188,-0.482422 -0.298031,-0.05617 -0.59528,0.01391 -0.857422,0.185547 l -0.755859,0.515625 0,-5.207031 c 0,-0.628829 -0.513748,-1.142578 -1.142578,-1.142578 l -3.525391,0 c -0.432658,-0.68616 -1.192661,-1.144531 -2.058594,-1.144531 l -7.720703,0 z m -4.427734,3.43164 2.220703,0 c 0.3813,0.840575 1.224441,1.429688 2.207031,1.429688 l 7.720703,0 c 0.98259,0 1.830413,-0.589113 2.214844,-1.429688 l 2.22461,0 0,5.621094 -9.929688,6.767578 c -0.229375,0.159158 -0.388764,0.399595 -0.458984,0.675781 l -0.902344,3.613282 c -0.08114,0.319877 -0.02241,0.653108 0.160156,0.927734 0.184124,0.262143 0.468029,0.446139 0.798828,0.480469 l 3.697266,0.480468 0.148437,0.01172 c 0.227814,0 0.456109,-0.06972 0.638672,-0.207031 l 5.847657,-3.984375 0,7.634766 -16.587891,0 0,-22.021485 z m 19.984375,6.074219 1.498047,2.207031 -11.667969,7.960938 -1.990234,-0.261719 0.492187,-1.943359 11.667969,-7.962891 z m -0.589844,1.378906 c -0.07307,0.01397 -0.145402,0.04264 -0.210937,0.08594 l -10.123047,6.910156 c -0.263703,0.182564 -0.332955,0.537079 -0.150391,0.800781 0.102985,0.159158 0.28814,0.240235 0.470703,0.240235 0.113907,0 0.217328,-0.02509 0.320313,-0.09375 L 33.123046,22.17969 c 0.251219,-0.182564 0.320079,-0.53864 0.148438,-0.800782 -0.136922,-0.189585 -0.370636,-0.276285 -0.589844,-0.234375 z"
     id="path7378" />
</svg>
