<?xml version="1.0" encoding="UTF-8" standalone="no"?>
<!-- Created with Inkscape (http://www.inkscape.org/) -->

<svg
   xmlns:dc="http://purl.org/dc/elements/1.1/"
   xmlns:cc="http://creativecommons.org/ns#"
   xmlns:rdf="http://www.w3.org/1999/02/22-rdf-syntax-ns#"
   xmlns:svg="http://www.w3.org/2000/svg"
   xmlns="http://www.w3.org/2000/svg"
   xmlns:sodipodi="http://sodipodi.sourceforge.net/DTD/sodipodi-0.dtd"
   xmlns:inkscape="http://www.inkscape.org/namespaces/inkscape"
   width="48px"
   height="48px"
   id="svg7141"
   version="1.1"
   inkscape:version="0.91 r13725"
   sodipodi:docname="payer.svg">
  <defs
     id="defs7143" />
  <sodipodi:namedview
     id="base"
     pagecolor="#ffffff"
     bordercolor="#666666"
     borderopacity="1.0"
     inkscape:pageopacity="0.0"
     inkscape:pageshadow="2"
     inkscape:zoom="7"
     inkscape:cx="8.8571429"
     inkscape:cy="27.857143"
     inkscape:current-layer="svg7141"
     showgrid="true"
     inkscape:grid-bbox="true"
     inkscape:document-units="px"
     showguides="true"
     inkscape:guide-bbox="true"
     inkscape:window-width="1165"
     inkscape:window-height="746"
     inkscape:window-x="1844"
     inkscape:window-y="38"
     inkscape:window-maximized="0">
    <sodipodi:guide
       orientation="0,1"
       position="12.714286,38"
       id="guide7149" />
    <sodipodi:guide
       orientation="0,1"
       position="14.285714,10"
       id="guide7151" />
    <sodipodi:guide
       orientation="1,0"
       position="10,32.571429"
       id="guide7153" />
    <sodipodi:guide
       orientation="1,0"
       position="38,23"
       id="guide7155" />
  </sodipodi:namedview>
  <metadata
     id="metadata7146">
    <rdf:RDF>
      <cc:Work
         rdf:about="">
        <dc:format>image/svg+xml</dc:format>
        <dc:type
           rdf:resource="http://purl.org/dc/dcmitype/StillImage" />
        <dc:title />
      </cc:Work>
    </rdf:RDF>
  </metadata>
  <path
     d="m 21.03902,27.504872 c 0.496025,4.463694 2.054959,6.695505 4.712128,6.695505 0.992256,0 1.877911,-0.213754 2.728238,-0.641471 0.779467,-0.450246 1.594468,-1.470437 2.338399,-3.064163 0.496025,-1.043065 0.921189,-1.684398 1.275492,-1.946806 0.389836,-0.259159 0.744139,-0.379064 1.169303,-0.379064 0.779467,0 1.452539,0.213755 1.913237,0.641472 0.425164,0.42744 0.673072,1.020397 0.673072,1.804233 0,1.804234 -0.992047,3.514478 -2.940612,5.059622 C 30.924179,37.216164 28.585781,38 25.786682,38 23.164839,38 20.8973,37.122244 18.948529,35.386015 16.999964,33.653033 15.830661,31.019489 15.441031,27.504872 l -2.586517,0 c -0.247908,0 -0.354302,-0.169041 -0.354302,-0.476231 0,-0.307605 0.10598,-0.712654 0.389837,-1.185499 0.247909,-0.476093 0.46049,-0.690055 0.637745,-0.690055 l 1.771516,0 0,-0.689987 c 0,-0.547344 0.03533,-1.328002 0.07065,-2.351647 l -2.515657,0 c -0.247909,0 -0.354303,-0.165308 -0.354303,-0.472845 0,-0.33359 0.10598,-0.712585 0.389838,-1.211553 0.247907,-0.450246 0.460489,-0.689986 0.637745,-0.689986 l 2.054959,0 C 16.468196,13.255388 19.834179,10 25.609217,10 c 2.586516,0 4.747868,0.618597 6.625571,1.830149 1.842376,1.188747 2.763563,2.68199 2.763563,4.489472 0,0.615555 -0.212581,1.114454 -0.637745,1.541963 -0.460489,0.427579 -0.992048,0.641333 -1.594259,0.641333 -0.67328,0 -1.204631,-0.165239 -1.558934,-0.498692 -0.283441,-0.307743 -0.602419,-0.806642 -0.921188,-1.496697 -0.389838,-0.877686 -0.850327,-1.541895 -1.417211,-2.017988 -0.53156,-0.450316 -1.452748,-0.689986 -2.763773,-0.689986 -1.5234,0 -2.65717,0.476231 -3.472171,1.425377 -0.779466,0.975061 -1.346352,2.471551 -1.558934,4.512138 l 6.590246,0 c 0.247908,0 0.389629,0.142504 0.389629,0.4763 0,0.356259 -0.105977,0.735184 -0.354303,1.211346 -0.283442,0.450246 -0.496024,0.686738 -0.673071,0.686738 l -6.129547,0 0,1.804303 c 0,0.573329 0,0.974993 0,1.237331 l 6.767292,0 c 0.247908,0 0.389629,0.142572 0.389629,0.450315 0,0.356396 -0.105977,0.761238 -0.354303,1.211484 -0.283442,0.472914 -0.496024,0.689986 -0.673071,0.689986 l -5.987827,0"
     style="display:inline;fill:#292929;fill-opacity:1;fill-rule:nonzero;stroke:none"
     id="path7270"
     inkscape:connector-curvature="0" />
</svg>
