<?xml version="1.0" encoding="UTF-8" standalone="no"?>
<svg
   xmlns:dc="http://purl.org/dc/elements/1.1/"
   xmlns:cc="http://creativecommons.org/ns#"
   xmlns:rdf="http://www.w3.org/1999/02/22-rdf-syntax-ns#"
   xmlns:svg="http://www.w3.org/2000/svg"
   xmlns="http://www.w3.org/2000/svg"
   xmlns:sodipodi="http://sodipodi.sourceforge.net/DTD/sodipodi-0.dtd"
   xmlns:inkscape="http://www.inkscape.org/namespaces/inkscape"
   id="TimbreFisc"
   aria-hidden="true"
   viewBox="0 0 36.058998 45.222"
   width="34.616638"
   height="43.41312"
   version="1.1"
   inkscape:version="0.91 r13725"
   sodipodi:docname="picto_timbre.svg">
  <metadata
     id="metadata11">
    <rdf:RDF>
      <cc:Work
         rdf:about="">
        <dc:format>image/svg+xml</dc:format>
        <dc:type
           rdf:resource="http://purl.org/dc/dcmitype/StillImage" />
        <dc:title></dc:title>
      </cc:Work>
    </rdf:RDF>
  </metadata>
  <defs
     id="defs9" />
  <sodipodi:namedview
     pagecolor="#ffffff"
     bordercolor="#666666"
     borderopacity="1"
     objecttolerance="10"
     gridtolerance="10"
     guidetolerance="10"
     inkscape:pageopacity="0"
     inkscape:pageshadow="2"
     inkscape:window-width="1280"
     inkscape:window-height="1002"
     id="namedview7"
     showgrid="false"
     inkscape:zoom="4.9166667"
     inkscape:cx="-7.0833193"
     inkscape:cy="20.30701"
     inkscape:window-x="-8"
     inkscape:window-y="-8"
     inkscape:window-maximized="1"
     inkscape:current-layer="TimbreFisc"
     fit-margin-top="0"
     fit-margin-left="0"
     fit-margin-right="0"
     fit-margin-bottom="0" />
  <path
     d="m 20.129,7.155 c -0.216,0.016 -0.213,0.01 -0.418,0.092 -0.155,0.064 -0.322,0.085 -0.477,0.153 -0.31,0.136 -0.435,0.324 -0.59,0.628 -0.042,0.08 -0.086,0.223 -0.11,0.317 -0.032,0.12 -0.073,0.408 -0.073,0.515 l 0.026,0.294 0.127,0.26 0.168,0.228 c 0.028,0.022 0.453,0.194 0.507,0.212 0.26,0.086 0.148,0 0.402,0.147 -0.947,-0.1 -1.363,-0.08 -2.295,-0.027 -0.333,0.02 -0.483,0.02 -0.82,0.076 -0.31,0.05 -0.635,0.178 -0.91,0.34 -0.3,0.18 -0.58,0.398 -0.824,0.66 -0.504,0.548 -0.768,0.973 -1.186,1.584 0.094,0.065 0.074,0.06 0.13,0.16 -0.063,0.028 -0.153,0.057 -0.21,0.094 -0.435,0.293 -0.85,0.622 -1.23,0.994 -0.122,0.118 -0.367,0.392 -0.45,0.525 l -0.13,0.258 0.002,0.283 c 0.007,0.043 0.12,0.275 0.15,0.333 0.1,0.194 0.126,0.258 0.208,0.462 l -0.088,0.2 c -0.07,0.16 -0.367,0.58 -0.485,0.75 -0.146,0.21 -0.548,0.756 -0.634,0.954 -0.092,0.21 -0.095,0.162 -0.064,0.274 0.065,0.227 0.056,0.202 0.156,0.413 0.043,0.09 0.207,0.364 0.218,0.403 l -0.01,0.296 -0.134,0.253 c -0.7,1.032 -1.686,1.824 -2.51,2.737 -0.085,0.094 -0.156,0.235 -0.214,0.353 l 0.01,0.03 c 0.02,0.067 0.113,0.253 0.147,0.304 0.06,0.085 0.505,0.535 0.577,0.634 l 0.1,0.178 0.043,0.284 -0.08,0.278 c -0.023,0.05 -0.14,0.22 -0.147,0.25 -0.007,0.045 0.076,0.31 0.094,0.346 0.036,0.07 0.136,0.167 0.167,0.233 l 0.076,0.27 -0.09,0.274 c -0.026,0.06 -0.132,0.213 -0.143,0.254 l 0.003,0.257 0.223,0.285 c 0.157,0.2 0.12,0.124 0.194,0.372 0.02,0.07 0.02,0.065 0.01,0.14 -0.015,0.08 -0.016,0.173 -0.05,0.247 -0.127,0.282 -0.18,0.392 -0.274,0.693 -0.065,0.21 -0.092,0.512 -0.07,0.734 0.023,0.222 0.02,0.22 0.073,0.438 0.02,0.08 0.093,0.28 0.127,0.343 l 0.17,0.23 0.23,0.153 0.333,0.073 c 0.563,0.163 1.133,0.275 1.7,0.416 0.527,0.13 0.442,0.165 1.053,0.215 0.07,0.007 0.066,-0.003 0.118,0.05 0.124,0.127 0.122,0.09 0.143,0.243 0.052,0.366 0.076,0.736 0.13,1.102 0.3,2.002 1.442,3.738 1.81,5.432 l 3.386,0 0.27,-0.625 c 0.26,-0.568 0.558,-1.123 0.91,-1.63 0.836,-1.214 1.886,-2.144 3.305,-2.37 0.673,-0.107 1.356,-0.04 2.015,0.132 l -0.04,-0.124 c -0.053,-0.16 -0.756,-1.257 -0.904,-1.543 -0.07,-0.138 -0.172,-0.4 -0.205,-0.55 L 23.74,30.098 23.756,29.8 23.832,29.515 c 0.023,-0.048 0.16,-0.236 0.206,-0.29 0.382,-0.49 0.763,-0.976 1.114,-1.49 0.306,-0.444 0.51,-0.765 0.795,-1.222 0.86,-1.374 1.683,-3.115 2.144,-4.7 0.256,-0.878 0.432,-1.648 0.55,-2.565 0.087,-0.7 0.127,-1.344 0.108,-2.053 -0.026,-0.915 -0.15,-1.825 -0.39,-2.702 -0.412,-1.518 -1.172,-2.926 -2.21,-4.042 C 25.721,9.993 25.263,9.569 24.765,9.204 23.399,8.204 22.017,7.639 20.421,7.232 L 20.311,7.184 C 20.249,7.169 20.191,7.151 20.125,7.156 Z"
     id="path3"
     inkscape:connector-curvature="0" />
  <path
     d="m 0.007,0 0,2.597 c 0.93,0.148 1.636,0.813 1.636,1.613 0,0.8 -0.704,1.465 -1.636,1.613 l 0,2.038 C 1.064,7.915 1.9,8.631 1.9,9.503 c 0,0.873 -0.835,1.584 -1.892,1.64 l 0,2.018 c 1.015,0.087 1.807,0.787 1.807,1.635 0,0.847 -0.792,1.544 -1.807,1.63 l 0,1.698 c 0.043,-0.002 0.088,-0.003 0.13,-0.003 1.118,0 2.02,0.737 2.02,1.643 0,0.907 -0.902,1.644 -2.02,1.644 -0.042,0 -0.087,0 -0.13,-0.003 l 0,2.095 c 1.015,0.088 1.807,0.784 1.807,1.632 0,0.85 -0.792,1.548 -1.807,1.636 l 0,2.275 c 0.973,0.118 1.72,0.8 1.72,1.624 0,0.824 -0.745,1.51 -1.72,1.627 l 0,2.187 c 1.057,0.053 1.893,0.765 1.893,1.638 0,0.873 -0.835,1.587 -1.892,1.642 l 0,2.01 c 1.057,0.054 1.893,0.77 1.893,1.643 0,0.873 -0.835,1.587 -1.892,1.642 l 0,2.166 1.909,0 c -0.012,-0.092 -0.02,-0.183 -0.02,-0.278 0,-1.042 0.79,-1.885 1.763,-1.885 0.975,0 1.765,0.845 1.765,1.885 0,0.095 -0.006,0.187 -0.02,0.278 l 2.362,0 c -0.012,-0.092 -0.02,-0.183 -0.02,-0.278 0,-1.042 0.788,-1.885 1.763,-1.885 0.975,0 1.764,0.845 1.764,1.885 0,0.095 -0.005,0.187 -0.02,0.278 l 1.846,0 c -0.013,-0.092 -0.02,-0.183 -0.02,-0.278 0,-1.042 0.79,-1.885 1.765,-1.885 0.975,0 1.764,0.845 1.764,1.885 0,0.095 -0.01,0.187 -0.022,0.278 l 2.363,0 c -0.014,-0.092 -0.02,-0.183 -0.02,-0.278 0,-1.042 0.79,-1.885 1.765,-1.885 0.974,0 1.764,0.845 1.764,1.885 0,0.095 -0.01,0.187 -0.022,0.278 l 2.01,0 c -0.006,-0.066 -0.01,-0.133 -0.01,-0.2 0,-1.042 0.788,-1.885 1.763,-1.885 0.974,0 1.764,0.845 1.764,1.884 0,0.068 -0.003,0.135 -0.01,0.2 l 2.346,0 c -0.006,-0.065 -0.01,-0.132 -0.01,-0.2 0,-1.04 0.788,-1.884 1.762,-1.884 0.975,0 1.765,0.845 1.765,1.884 0,0.068 -0.003,0.135 -0.01,0.2 l 2.25,0 0,-2.172 c -1.016,-0.087 -1.81,-0.787 -1.81,-1.635 0,-0.85 0.794,-1.548 1.81,-1.636 l 0,-2.18 c -1.016,-0.088 -1.81,-0.788 -1.81,-1.636 0,-0.848 0.794,-1.548 1.81,-1.635 l 0,-1.94 c -1.016,-0.088 -1.81,-0.784 -1.81,-1.632 0,-0.85 0.794,-1.548 1.81,-1.636 l 0,-2.184 c -1.016,-0.087 -1.81,-0.784 -1.81,-1.632 0,-0.85 0.794,-1.548 1.81,-1.636 l 0,-1.862 c -1.016,-0.087 -1.81,-0.786 -1.81,-1.635 0,-0.848 0.794,-1.548 1.81,-1.635 l 0,-2.18 c -1.016,-0.09 -1.81,-0.788 -1.81,-1.637 0,-0.847 0.794,-1.547 1.81,-1.634 l 0,-2.042 c -0.933,-0.147 -1.634,-0.814 -1.634,-1.616 0,-0.8 0.7,-1.465 1.633,-1.612 l 0,-2.227 C 35.125,5.44 34.424,4.773 34.424,3.972 c 0,-0.802 0.7,-1.465 1.633,-1.613 l 0,-2.356 -2.087,0 c -0.126,0.91 -0.858,1.603 -1.743,1.603 -0.885,0 -1.62,-0.697 -1.746,-1.604 l -2.362,0 c -0.126,0.91 -0.858,1.603 -1.743,1.603 -0.885,0 -1.62,-0.697 -1.746,-1.604 l -2.031,0 c -0.158,0.868 -0.872,1.522 -1.73,1.522 -0.858,0 -1.573,-0.654 -1.73,-1.522 l -2.39,0 c -0.16,0.868 -0.873,1.522 -1.73,1.522 -0.86,0 -1.575,-0.654 -1.73,-1.522 l -1.875,0 c -0.158,0.868 -0.87,1.522 -1.73,1.522 -0.858,0 -1.576,-0.654 -1.733,-1.522 l -2.388,0 C 5.405,0.869 4.688,1.523 3.83,1.523 2.97,1.523 2.256,0.869 2.1,10e-4 l -2.1,0 z m 3.494,3 29.252,0 0,38.677 -29.252,0 0,-38.677 z"
     id="path5"
     inkscape:connector-curvature="0" />
</svg>
